<svg width="60" height="60" xmlns="http://www.w3.org/2000/svg" data-asc="1">

 <g>
  <title>Layer 1</title>
  <ellipse ry="30" rx="30" id="svg_4" cy="30" cx="30" stroke="#ffffff" fill="#ffffff"/>
  <g id="svg_1" fill="#000000">
   <g id="svg_2" fill="#000000">
    <path id="svg_3" d="m20.9,15.875l18.5,0l0,30.95q0,4.7 -2.62,7.28q-2.63,2.57 -7.48,2.57q-4.5,0 -7.15,-2.22q-2.65,-2.23 -2.95,-6.28l5.1,0q0.7,1.7 1.93,2.58q1.22,0.87 3.07,0.87q2.2,0 3.4,-1.35q1.2,-1.35 1.2,-3.75l0,-25.5l-13,0l0,-5.15m15.75,-4.45q-1.95,0 -3.05,-1.07q-1.1,-1.08 -1.1,-2.98q0,-1.9 1.1,-2.98q1.1,-1.07 3.05,-1.07q1.95,0 3.05,1.07q1.1,1.08 1.1,2.98q0,1.9 -1.1,2.98q-1.1,1.07 -3.05,1.07z"/>
   </g>
  </g>
 </g>
</svg>